/* XPM */
static char *_6553b158315485cdbb78f19539b0c44PFX9gpP5T2LOtQrk[] = {
/* columns rows colors chars-per-pixel */
"32 32 6 1 ",
"  c None",
". c #1B1936",
"X c #1E1D3D",
"o c #292652",
"O c #2B2857",
"+ c #3F3F74",
/* pixels */
"                                ",
"                                ",
"                                ",
"                                ",
"                                ",
"                                ",
"                                ",
"                                ",
"                                ",
"          .OO                   ",
"             .     .OO          ",
"          .   ++++              ",
"             +XXXX+  .          ",
"           .+XooooX+            ",
"           +Xo....oX+           ",
"           +o......o+.          ",
"           +Xo....oX+  .        ",
"         O +oXooooXo+  .        ",
"        .   +oXXXXo+            ",
"        .O . +oooo+ O.          ",
"              ++++   .          ",
"                    .           ",
"                  .             ",
"                                ",
"                                ",
"                                ",
"                                ",
"                                ",
"                                ",
"                                ",
"                                ",
"                                "
};
