/* XPM */
static char *d861282bc59547558203c9910b4af6e3rbgxNZObNzSiiw4L[] = {
/* columns rows colors chars-per-pixel */
"96 96 15 1 ",
"  c None",
". c black",
"X c #120E1A",
"o c #2B170E",
"O c #622C14",
"+ c #2C2245",
"@ c #3D3760",
"# c #662F7E",
"$ c #B85C32",
"% c #CA6536",
"& c #D07146",
"* c #F18C5E",
"= c #968CC6",
"- c #FFE0D2",
"; c #DBD5F7",
/* pixels */
" &&&&&&&&&&&&&&&&&&&&&&&&&&&&&&&&&&&&-*&&&&&&&&&&&&&&&&&&&&&&&-*&&&&&&&&&&&&&&&&&&&&&&&&&&&&&&& ",
"&----------------------------------&-*&---------------------&-*&-------------------------------&",
"&----------*----------------------&-*&---------------------&-*&--------------------------------&",
"$#**********-*********************O$*$*********************O$*$********************************$",
"o#$$$$$$$$$*-$$$$$$$$$$$$$$$$$$$$$O$*$$$$$$$$$$$$$$$$$$$$$$O$*$$$$$$$$$$$$$$$$$$$$$$$$$$$$$$$$*o",
"o#@$$$$$$$$*-$$$$$$$$*OOO$$$$$$$$+O$*$++$$$$$$$$$$$$$$$$+++O$*O$$$$$OOO$$$$$OOO$$$*$$*$$o$$$o$*o",
".o+@$$$$$$$**$$$$$$$*O...O$$$$$$++O$*$++$$$$$$$$$$$$$$$$+.+O$*$$$$$O...O$$$O...O$O*$O*$$O$$$O$$o",
" .o+@OOOOOO$*OOOOOOOOo.X.oOOOOOO++O$*$**$$$OOO+++OOO$$$$*$+O$*O$$$$.....$$$.....$O*$O*++.+++.+o ",
"  .o+++++.O$*.+++++....X...+++++++O$*$$$OO+#.XXXXX.#+OO$$++O$*$$$$$+....$$$+....$O*O.*..oooo..  ",
" #@@$%%%%%$$*%%%%%%%*o.X.o$%%%%%+.O$*$O+#X...........X#+O+.O$*O$$$$++...$$$++...$O*+.*..OOOOO$$ ",
"#@+oOOOOOOo$*OOOOOOO*o.X.oOOOOO%+.O$*+X.................X+.O$*$$$$$*+#+*$$$*++.*$O*..*..OOoOOo$ ",
"@++oOOOOOOo$*OOOOOOO*o.X.oOOOOO$..O$$......................O$*O$$$$$O=+$$$$$***$O+*..$O..OOOO$$ ",
"+.++oOOOOOo$*OOOOOOO*o.X.oOOOOO$..OOO$...oO..oO..oO..oO...$O$*$$$$$O+=+$$$$$$$$O+.$O..$O.....   ",
" +.++oOOOOo$*OOOOOOO$o.X.o+OOOO$..OOOo$..oo..oo..oo..oo..$oO$*OOOOOO+#+OOOOOOOO+...$O..o.+@==;= ",
"  +@@@+++++$$+++++++oo.X..o++++O..OOOoO$$*************$$$OoO$*++++++.@+.+++++++.....$O..o.+@@=;=",
"   ...oooo.OOoooooOooX.X....X.....OOOoOOOOOOOOOOOOOOOOOOOOoO$*..o.o..@+..o.o.........$O..o.+@@=@",
"   ...oooo..oooooOooX..XXXXXX......OOoOOOOOOOOOOOOOOOOOOOOoOO$..o.o..++..o.*******....O..O..+@=@",
"  ##@oOOOOOOOOOO$OoX...X...........X+.o..................o..X+...........o.*.....*....o..O..+@=@",
" #@@ooO..O.OOOO$OoX.XXXX.$***********.oOOOOO........OOOOOo.$********..OOOOOO.ooo.O.++.o..o..+@=@",
" +@@ooO$$O$OOO$O+X..+...$*$$$$$$$$$$*.oOO..............OOo.O$$$$$$$$*.O.oooooOOO.O.@@.OOOOOO.@=@",
" +@@ooOOOOOOO$O+X.+.+...$O$$$$$$$**$*.oO..@....@.....@..Oo.O$o$$$**$*.OoOOOOOOOOo..++........@=@",
" +@@ooOOOOOO$O+X..+.+...@O$$$$$$$oo$*.oO.+@...+@....+@..Oo.O$O$$$oo$O.OoOOOOOOOOOo....o..o..+@=@",
" +@@ooOOOOOO$O+X..+.+...+@OOOOOOOooO$.o..+@+..+@+...+@+..o.#OoOOOooO+.OoOO$$$$$$O$o...o..O..+@=@",
" +@@ooOOOOOO$O+X..+.+++.X+++++++++++#.+...@+...@+....@+..o.X#.++++++..OoOO$$$$$$$O$...o..O..+@=@",
" +@..oO..O.O$O+X......+...............+.#++#.#++#..#++#..oo...........OoOO*....$$$*$..o..Oo.+@=@",
" +@#OoO$$O$O$O+X......X.....oo.....++++.X##@.X##@..X##@...oooo....++#..oOO$*...$$$*$..o....o.@=@",
" +@@ooOOOOOO$O+X+++.++++++#.oo.....+++..XX@@.XX@@..XX@@....ooo...++.+#.oOO$$*..$$$*$..o....o.@=@",
" +@..oO..O.O$O+X+++.++++++@.oo.....++...XX@+.XX@+..XX@+.....oo...#...+.oOO$$$*.$$$*$..o....O.@=@",
" +@..oO..O.O$O+X+++.XXXXXXX.oo.....++...XX++.XX++..XX++.....oo...+#.#+.o+O$$$$*$$$#+.......O.@=@",
" +@..oO..O.O$O+X##@.........oo.....++...+X+#.+X+#..+X+#.....oo....+++..o++@@@@@@@@#+..OOOOOO.@=@",
" +@#OoO$$O$O$O+XXXX.XXXX....oo.....++....+#...+#....+#......oo........O.o++++++++++...O.......@@",
" +@@ooOOOOOO$O+X....XX.X....oo.....++.......................oo........O..ooooooooo.o..O........ ",
" +@@ooOOOOOO$O+X......+.....oo.....++.......................oo........O...oOOOOO$o$*****..$****$",
" +@@ooOOOOOO$O+X.++++++..ooooo.....++....................ooooo....+++.O...oOOOOO$oO$$$$$*..O$$*$",
" +@@ooOOOOOO$O+X........oo.........++...................oo........+...O...oO$$$$*oO$$$$$*..O$$*$",
" +@@ooOOOOOO$O+X.oooooooo..+++++++.++.oooo.......oooooooo..++++++++...o...oO$$$$*oO$$$$$$***$$*$",
" +@@ooOO@======@.o.........+XXXXX+.++.oooo.......o.........+XXXXXXX.+=....oO$$$$-oOOOOOOOOOOOO$O",
" +@@ooOo+@@@@=@+.o.XXXXXXX.+.....+.++.oooo.......o.XXXXXXX.+....+++...=#O.oO$$$$-ooooooooooooo  ",
"  .@ooOo+@@@@=@+.o.X.....X.+++++++.++............o.X.....X.++++++XX......OoO$.$$-ooO..Oo...oO   ",
" +#@ooOo+#@@@=@+.o.X.....+.XXXXXXX.@@............o.X.....+.XXXXXX.+...Oo..oO$O$$-oO$$.Oo..oO    ",
" +@@ooOo+#@@@=@+.o.X.....+++++++++.++............o.X.....++++++++++...o...oO$O$$-o.o..Oo.oO     ",
" +@@ooOo+#@@@=@+.o.X.....XXXXXXXX+.@@.ooo........o.X.....XXXXXXXXXX.+=....oO$$$$-oO$$.Oo.O.     ",
" +@@ooOo+#@@@=@+.o.+.+++++++++++.+.++............o.+.++++++++++++++...=#O.oO$$$$-o.o..Ooo..     ",
"  .@ooOo+#@@@=@+.o.+.+XX+X@+X+++.+.@@............o.+.+XX+X@+X++++++......OoO$$$$-oO$$.Ooo..     ",
" +#@ooOo+#@@@=@+.o.+.+XX++++++XX.+.++.ooo........o.+.+XX++++++XX+++...Oo..oO$$$$-o.o..Ooo..     ",
" +@@ooOoX++++@++.o.+.++++X@+X+XX.+.@@............o.+.++++X@+X+XX+++...o...oO$.$$-o.O..Ooo+@==;= ",
" +@@ooOooXXXXoXX.o.+.+++++++++++.+.++............o.+.++++++++++++++.+=....oO$O$$-o.O..Oo.o+@@=;=",
" +@@ooOOooooOoXX.o.+.XXXXXXXX###.+.@@............o.+.XXXXXXXX######...=#O.oO$O$$-o.O..O...o+@@=@",
" +@@ooOOOOOO$O+X.o.+.XXXXXXXXXXX.+.++............o.+.XXXXXXXXXXXXXX......OoO$O$$-o.O..OOOO..+@=@",
" +@@ooOOOOOO$O...o.+.............+.@@............o.+..................+...oO$O$$-o.O..o..O..+@=@",
" .++ooooOOO$O......+.............+.++..............+..................+...oO$O$$*o.O..o..o..+@=@",
" ......OoOO$..++++++..+..+.......+.++++XXXXXXX++++++..................+.o++O$$$$*o.OOOOOOOOO.@=@",
"  .@....OoO$..+.......+..+.......+.XXXX...............................#.o++O$$$$*o.ooo.oo.oo.@=@",
"   .@....oO$X+##Xo....+..+.......++++++..........o....................#.o++O$.$$*o....o..o..+@=@",
"   .+....oO$.....o....+..+.......XXXXXX..........o....................#...oO$O$$*o....o..O..+@=@",
"   .+....oO$X+##Xo...+++.X....................oo.o....................#.o@======;;=.ooo..O..+@=@",
"   .....$OO$.....o....X..X....................oo.o....................#.o+@@@@@@==@.o....Oo.+@=@",
"@=##@$$$oOO$X+##Xo....+.......................oo.o....................#...@@.@@.==+.o......o.@=@",
" +++...oOOO$.....oooo.+.ooooOO................oo.oooooooooooOO........#.o+@@+@@+==@.o......o.@=@",
" +@@ooOOOOO$O.........+.....oO..............................oO........#.o+@@+@@@==@.o......O.@=@",
" +@@ooOOOOOO$O........+..X..oO..............................oO........+.o+@@@@@@==@.o......O.@=@",
" +@@ooOOOO.O$O+X......+..+..oO..............................oO........+.o+@@@@@@==@.o.OOOOOO.@=@",
" +@@ooOOOO$O$O+X......+..+..oO..............................oO........+.o+@@@@@@==@.o.O......+@+",
" +@@ooOOOOOO$O+X......+..+..oo..............................oo........+...++++++@@+.o.O......+@+",
" .++oooOOOOO$O........+..+..oo..............................oo........+...ooooooOo..o.O......+@+",
" ......oOOOO$O........+..+..oo....@....@.....@..............oo........+...OOOOOO$o..o.OOOOO..+@+",
"  .@....OOOO$O.+=.....++++..oo...+@...+@....+@..............oo........+...OOOOOO$o..o.....O..+@+",
"  .@....OO.O$O...=#O........oo...+@+..+@+...+@+.oooooooooooooo....+++++..$O$$$$$-o.oo........+@+",
"  .@....OO$O$O+.....O......oOo....@+...@+....@+.o.................X.....$OO$$$$$-o.....$******-*",
"  .@....OOOO$O+X.Oo....+..oO$O..#++#.#++#..#++#.o.................X....O$OO$$$$$-ooo...O$$$$$$*$",
"  .@....OOOO$O...o.....+..O$OO..X##@.X##@..X##@.o......+++++++++XXX...O$OOO$$$$$-ooO...O$..$$$*$",
"  .@....OOOO$O.+=......+..O$O...XX@@.XX@@..XX@@.o......+..+...+......O$OOOO$$$$$-oO$$..O$..$$$*$",
".......$OO.O$O...=#O...+..O$O...X..+.X..+..XX@+.o......+..+...+.....O$OOOOO$**$$-o.o...O$**$$$*$",
".@==OO$OOO$O$O+.....O..+..O$O.....@....@...XX++.o......+..+.+.+.X..O$OOOOOO*ooO$-oO$$..O$$$$$$*$",
" +@@ooOOOOOO$O+..Oo....+..O$O....+@...+@...+X+#.o......+.X+.@.+.X..O$OOOOOO*X+O$-o.o...O$$$$$$*$",
" +@@ooOOOOOO$O...o.....+..O$O....+@+..+@+...+#..o......+.X+...+.X.......OOO*X+O$-oO$$..O$$$$$$*$",
" +@@ooOOOOOO$O.+=.........oOo.....@+...@+.......o......+.X+.+.+.X...*$$$OOO*X+O$-o.o...O$..$$$*$",
" +@@ooOOOOOO$O...=#O....oOO$$Oo.#++#.#++#...ooooo......+.X+.+.+.X..*$OOOOOO*X+O$-o.O.o.O$..$$$*$",
" +@@ooOOOOOO$O+.....O...oOO$$Oo.X##@.X##@...o.o.o......+.X+.+.+.X..O$OOOOOO*X+O$-o.O.o.O$OO$$$*$",
" +@@ooOOOOOO$O+..+........ooo...XX@@.XX@@...o.o.o......+.X+.+.+.X.......OOO*X+O$-o.O.o.O$$O$$$*$",
" +@@OO$$$$$$O+X..+.....+..oOo...XX@+.XX@+...o.o.o......+.X+.+.@.X...*$$$OOO*X+O$-o.O.o.O$$O$$$*$",
" X+++ooooooooXX..+.....+..O$O...XX++.XX++...o.O.O..+.+.+.X+X+...X..*$OOOOOO*X+O$-o.O.o..O$O$$$*$",
"  XXXXXXXXXXXX...+.....+..O$O...+X+#.+X+#...o.O.O..+.+.+.X+X+.+.X..O$OOOOOO*X+O$*o.O.o...OOOOO$O",
"  ...............+++++++..O$O....+#...+#....o.o.o..X.+.+.X+X+.+.X..O$OOOOOO*X+O$*o.O.o...XXXXXXX",
"  .......................OO$O............+..o.o.o..X.+.+.X.........O$OOOOOO*X+O$*o.O.o....+XXXX+",
" @@@@@=============...ooOO$Oo...++@.X++++@X.o......X.+.+.X+++++XX..O$OOOOOO*X+O$*o.O.o...+XXXXX+",
".++++++++++++++++++=..ooO$Oo....++@.X++++@X.o.++++++++.#.X+++++XX..O$OOOOOO*X+O$*o.O.o..@++++++=",
".+++++++++++++++++++@.ooooo.....###.X#####X.o.+....X.....X#####++...O$$$$$$*X+O$*o.O.o.@+++++++=",
".XXXXXXXXXXXXXXXXXXX+XXXXXXXXXXXXXXXXXXXXXX.o.#.+++@@@@..XXXXXXXX...oooooooOX+OO$O....@+++++++#=",
" @@@@@=========================+==========X.X.#....X..@...@====++++++++++++XXXXXX...@@+++.+++#= ",
" @+++++++++++++++++++++++++++++X+++++++++@X.X.+.@X@X@++X.@+++++XXXXXXXXXXXX+XXX+@@+.+++++#++#=  ",
" @+++++++++++++++++++++++++++++++++++++++@X X XXXX X  #X #++++++XXXXXXXXXXX+XX++@=@.+++++++#=   ",
"  +++++++++++++++++++++++++++++++++++++++#X X      XXX#X #+++++++XXXXXXXXXX+XX++#=@.++++++#=    ",
"   ++++++++##############++++++++++++++++#XXX         +XX#+++++++++++++++++#XX++#=@.+++++#=     ",
"     +++++#..............#+++++++++++++++#X              @+++++++++++++++++#XX++#=@.@@@@@=      ",
"       @@@..            ..#@@@@@@@@@@@@@@@                #@@@@@@@@@@@@@@@@@   @@@+.            "
};
