/* XPM */
static char *_7bc9a840ab94260a260f95775a9ba3dwNtXQDLDlzMq4m39[] = {
/* columns rows colors chars-per-pixel */
"32 32 17 1 ",
"  c None",
". c black",
"X c #18191A",
"o c #140C2A",
"O c #141430",
"+ c #1C1C38",
"@ c #212526",
"# c #323C39",
"$ c #23521D",
"% c #232340",
"& c #373F57",
"* c #D9A03E",
"= c #D9A584",
"- c #E3B89D",
"; c #FFB6B5",
": c #FFD9B5",
"> c white",
/* pixels */
"      #@@X@@@###@@              ",
"      @XX@@@@@@@#@X             ",
"        @@@@#@@@::@X#           ",
"       X#@@@@@-::::X#           ",
"     XXXX@@-@-:..::X#           ",
"       XX##--;;::::XX           ",
"     XXXXXX---::::-XX           ",
"     XXXXXXXX--::-XXX           ",
"   XX XXXXX%>=XXXXX X           ",
"     XXXXX&%%>=X>*%X X          ",
"    XXXXX&%%%%>=>*%OX           ",
"   XXXXX&&&%O%%>*%%XXX          ",
" XXXXXXX&%%&%O%%*%%%OOX         ",
"   XXXX%%%%%&O%*%%%%OOX         ",
"   XXXX&&%%%OO*.********        ",
"   XXXX%%%&%%O**$$*$*OOX        ",
"   XXXX%&%%&%OO*$$*$*.OX        ",
"  XXXXX%%&&&&&OO******OOX       ",
" XX  XX%&&O%%%%O:::*$*--X       ",
"     XX%&&&%%%%O:::*$*--X       ",
"     X X.%&&%%%O:::***--X       ",
"     X XOO%&&%%O*$$*$*ooX       ",
"       XXO%%&&%O*$$*$*ooX       ",
"        XOO%%&&O******ooX       ",
"        XOOO%&&OOOOO++ooX       ",
"        XO+OO%&OOO+O+OooX       ",
"        XO++OO%O+O+O+OooX       ",
"        XOO+O+OO+O+O+OooX       ",
"        XO++O+OO+O+O+OXX        ",
"         XXoooooXooooX          ",
"           X>>>X X>>>X          ",
"           XXXXX XXXXX          "
};
